<?xml version="1.0" encoding="utf-8"?>
<!-- Generator: Adobe Illustrator 14.0.0, SVG Export Plug-In . SVG Version: 6.00 Build 43363)  -->
<!DOCTYPE svg PUBLIC "-//W3C//DTD SVG 1.1//EN" "http://www.w3.org/Graphics/SVG/1.1/DTD/svg11.dtd">
<svg version="1.1" id="Layer_2" xmlns="http://www.w3.org/2000/svg" xmlns:xlink="http://www.w3.org/1999/xlink" x="0px" y="0px"
	 width="146.16px" height="146.16px" viewBox="0 0 146.16 146.16" enable-background="new 0 0 146.16 146.16" xml:space="preserve">
<path fill="#FFFFFF" stroke="#000000" stroke-width="6" d="M136.532,124.985c0,5.631-4.664,10.197-10.419,10.197H20.047
	c-5.754,0-10.419-4.566-10.419-10.197V21.175c0-5.632,4.665-10.197,10.419-10.197h106.066c5.755,0,10.419,4.565,10.419,10.197
	V124.985z"/>
<g>
	<path d="M58.484,103.9c0,1.5-0.482,2.725-1.446,3.672c-0.964,0.949-2.196,1.424-3.695,1.424H33.791c-1.5,0-2.724-0.475-3.672-1.424
		c-0.949-0.947-1.423-2.172-1.423-3.672V37.165h6.38v66.185h17.028V37.165h6.38V103.9z"/>
	<path d="M76.706,108.996h-6.38V37.165h6.38V108.996z"/>
	<path d="M117.464,103.9c0,1.5-0.49,2.725-1.469,3.672c-0.979,0.949-2.219,1.424-3.718,1.424H93.78c-1.5,0-2.724-0.475-3.672-1.424
		c-0.949-0.947-1.423-2.172-1.423-3.672V42.259c0-1.499,0.474-2.723,1.423-3.672c0.948-0.948,2.172-1.423,3.672-1.423h18.497
		c1.499,0,2.738,0.475,3.718,1.423c0.979,0.949,1.469,2.173,1.469,3.672v16.707h-6.426V42.81H95.065v60.54h15.973V85.68h6.426V103.9
		z"/>
</g>
</svg>
